<svg id="Layer_1" data-name="Layer 1" xmlns="http://www.w3.org/2000/svg" viewBox="0 0 229.04 300"><path d="M74.34,87.92v122a19.43,19.43,0,0,1-38.86,0v-122a19.43,19.43,0,0,1,38.86,0Z" transform="translate(-35.48 0)"/><path d="M192.61,87.92V209.25c0,9.87-7.09,18.68-16.88,19.93a19.45,19.45,0,0,1-21.81-16.76,19.13,19.13,0,0,1-.17-2.51V187.72c0-16.51,10.11-31.8,25.77-37,.85-.27,1.7-.53,2.58-.74-.88-.22-1.73-.48-2.58-.75-15.66-5.2-25.77-20.46-25.77-37V88.66c0-10.27,7.67-19.32,17.92-20.11a19.43,19.43,0,0,1,20.88,17.89c0,.49.06,1,.06,1.48Z" transform="translate(-35.48 0)"/><path d="M251.77,122.72v51.7c0,10.09-7.35,18.93-17.3,20l-.75.08-.74,0a1.54,1.54,0,0,1-.37,0h-.27a4.86,4.86,0,0,1-.66,0,3.64,3.64,0,0,1-.74,0l-.75-.08c-9.95-1.06-17.3-9.9-17.3-20v-51.7A19.19,19.19,0,0,1,217.64,110a14.42,14.42,0,0,1,1.19-1.28c.43-.4.85-.79,1.33-1.16a13.75,13.75,0,0,1,1.57-1.15,19.13,19.13,0,0,1,10.59-3.15,19.6,19.6,0,0,1,7.59,1.53,19.05,19.05,0,0,1,3,1.62c.54.35,1.07.75,1.57,1.15s.9.76,1.33,1.16A14.42,14.42,0,0,1,247,110,19.14,19.14,0,0,1,251.77,122.72Z" transform="translate(-35.48 0)"/><path d="M133.47,19.44V279.9c0,9.88-7.08,18.69-16.88,19.93a19.44,19.44,0,0,1-21.81-16.76,21,21,0,0,1-.17-2.51V187.72c0-16.51,10.09-31.77,25.75-37,.85-.27,1.7-.53,2.58-.74-.88-.22-1.73-.48-2.58-.75-15.66-5.2-25.75-20.46-25.75-37V19.44a19.43,19.43,0,0,1,38.86,0Z" transform="translate(-35.48 0)"/><path d="M264.28,58.09c-21,5.69-25.94,10.65-31.63,31.64a.32.32,0,0,1-.4.22.32.32,0,0,1-.23-.22c-5.69-21-10.64-25.95-31.63-31.64a.33.33,0,0,1-.23-.4.32.32,0,0,1,.23-.22c21-5.7,26-10.65,31.63-31.64a.34.34,0,0,1,.4-.23.33.33,0,0,1,.23.23c5.69,21,10.65,26,31.63,31.64a.31.31,0,0,1,.23.39A.33.33,0,0,1,264.28,58.09Z" transform="translate(-35.48 0)"/></svg>