<svg id="Layer_1" data-name="Layer 1" xmlns="http://www.w3.org/2000/svg" viewBox="0 0 1200 249.27"><path d="M278.89,199.84,226.68,49.43h27.07l40,120.54L333.89,49.43h26.86L308.54,199.84Z"/><path d="M413.18,202.63q-23.85,0-40.18-16.33-16.54-16.55-16.55-40.18T373,105.94q16.32-16.32,40.18-16.33t40.18,16.33q16.54,16.55,16.54,40.18T453.36,186.3Q437,202.64,413.18,202.63Zm-23.85-32.07a34.1,34.1,0,0,0,47.7,0q9.66-9.74,9.67-24.44T437,121.69a34.1,34.1,0,0,0-47.7,0q-9.68,9.72-9.67,24.43T389.33,170.56Z"/><path d="M579.27,199.84H552.41L525.77,163.1l-26.86,36.74H471.83l40.4-55.22L474,92.41h26.86l24.71,33.94,24.71-33.94h27.07l-38.24,52.42Z"/><path d="M742.77,121.84v10.34q0,31-20.41,50.84-20.19,19.62-53.28,19.61-34.82,0-57.59-22.56-22.56-22.56-22.56-55.44,0-32.65,22.56-55.22,22.77-22.77,56.3-22.77a82.93,82.93,0,0,1,20.3,2.47,73.54,73.54,0,0,1,18.16,7.2A76.42,76.42,0,0,1,721.5,67.59a71.2,71.2,0,0,1,11.82,14.72L712.05,94.55a43.72,43.72,0,0,0-17.73-17.4,54.08,54.08,0,0,0-26.53-6.45q-23.85,0-38.89,15.47-15.27,15.69-15.26,38.68,0,23.21,15.26,38.46,15.68,15.25,40.39,15.26,20.19,0,32.66-9.35a41.26,41.26,0,0,0,15.9-25H667.57V121.84Z"/><path d="M837.53,92.41h23.2V199.84h-23.2V186.09q-10.75,16.54-33.31,16.54-18.69,0-30-11.71T763,158.37v-66h23.21V156q0,12.24,6.44,18.58t17.62,6.34q12.24,0,19.77-7.63T837.53,150Z"/><path d="M972.89,92.41H996.1V199.84H972.89V184.19q-13.11,18.44-37.6,18.44-22.14,0-37.82-16.33t-15.68-40.18q0-23.85,15.68-40.18t37.82-16.33q24.29,0,37.6,18.23Zm-58.23,78.27q9.68,9.6,24.28,9.61t24.28-9.61q9.67-9.83,9.67-24.56t-9.67-24.34Q953.56,112,938.94,112t-24.28,9.82Q905,131.39,905,146.12T914.66,170.68Z"/><path d="M1046.37,110.45q8.6-20,33.09-20v25.14q-13.32-.85-23.2,6.45-9.88,7.08-9.89,23.63v54.15h-23.2V92.41h23.2Z"/><path d="M1176.8,49.43H1200V199.84h-23.2V184.19q-13.11,18.44-37.61,18.44-22.12,0-37.81-16.33t-15.69-40.18q0-23.85,15.69-40.18t37.81-16.33q24.29,0,37.61,18.23Zm-58.23,121.25q9.66,9.6,24.28,9.61t24.28-9.61q9.66-9.83,9.67-24.56t-9.67-24.34q-9.68-9.82-24.28-9.82t-24.28,9.82q-9.67,9.61-9.67,24.34T1118.57,170.68Z"/><path d="M165.35,160.7a3.78,3.78,0,0,1-.47.06h-.15Z"/><path d="M162.41,160.76h-.15a3.4,3.4,0,0,1-.46-.06Z"/><path d="M32.29,73.05V174.41a16.15,16.15,0,1,1-32.29,0V73.05a16.15,16.15,0,1,1,32.29,0Z"/><path d="M130.57,73.05V173.86c0,8.2-5.89,15.53-14,16.56a16.15,16.15,0,0,1-18.26-16V156c0-13.71,8.4-26.42,21.41-30.72.71-.22,1.41-.44,2.14-.62-.73-.17-1.43-.39-2.14-.61-13-4.33-21.41-17-21.41-30.73V73.66c0-8.53,6.37-16,14.88-16.71a16.15,16.15,0,0,1,17.41,16.1Z"/><path d="M175.78,91.42a11.08,11.08,0,0,0-1-1.06,1.54,1.54,0,0,1,.2.18A9.37,9.37,0,0,1,175.78,91.42Z"/><path d="M179.73,102v43c0,8.39-6.11,15.73-14.38,16.61l-.62.07-.62,0a1.62,1.62,0,0,1-.31,0h-.22a5.34,5.34,0,0,1-.55,0,3.27,3.27,0,0,1-.62,0l-.61-.07c-8.27-.88-14.38-8.22-14.38-16.61V102a15.91,15.91,0,0,1,3.94-10.54,10,10,0,0,1,1-1.06c.35-.33.7-.66,1.1-1a12,12,0,0,1,1.3-1,14.74,14.74,0,0,1,2.51-1.34,15.79,15.79,0,0,1,6.29-1.28,16.13,16.13,0,0,1,6.31,1.28,14.74,14.74,0,0,1,2.51,1.34c.44.29.88.62,1.3,1s.75.64,1.11,1a11.08,11.08,0,0,1,1,1.06A15.92,15.92,0,0,1,179.73,102Z"/><path d="M152.36,90.36a10,10,0,0,0-1,1.06,9.48,9.48,0,0,1,.8-.88A.84.84,0,0,1,152.36,90.36Z"/><path d="M81.43,16.14V232.57c0,8.21-5.89,15.53-14,16.56a16.15,16.15,0,0,1-18.26-16V156c0-13.71,8.38-26.4,21.39-30.72.71-.22,1.41-.44,2.14-.62-.73-.17-1.43-.39-2.14-.61-13-4.33-21.39-17-21.39-30.73V16.14a16.15,16.15,0,1,1,32.29,0Z"/><path d="M190.12,48.26c-17.44,4.73-21.56,8.85-26.29,26.29a.27.27,0,0,1-.52,0C158.58,57.11,154.46,53,137,48.26a.27.27,0,0,1,0-.52c17.44-4.73,21.56-8.85,26.29-26.29a.27.27,0,0,1,.52,0c4.73,17.44,8.85,21.56,26.29,26.29A.27.27,0,0,1,190.12,48.26Z"/></svg>